<?xml version="1.0" encoding="utf-8"?>
<!-- Generator: Adobe Illustrator 27.0.1, SVG Export Plug-In . SVG Version: 6.00 Build 0)  -->
<svg version="1.1" id="Layer_1" xmlns="http://www.w3.org/2000/svg" xmlns:xlink="http://www.w3.org/1999/xlink" x="0px" y="0px"
	 viewBox="0 0 887.5 887.5" style="enable-background:new 0 0 887.5 887.5;" xml:space="preserve">
<style type="text/css">
	.st0{fill:#F4F2F3;}
	.st1{fill:#3D54A5;}
</style>
<rect width="887.5" height="887.5"/>
<g>
	<g>
		<path class="st0" d="M353.8,351.3c0-7.2,4.8-12,12-12h77.9c129.5,0,219.4,37.2,219.4,146.3c0,124.1-118.1,172-232.6,172
			c-16.2,0-21-3-21-8.4c0-7.2,4.8-9,13.2-9c110.3,0,222.4-37.8,222.4-155.9c0-99.5-81.5-127.1-201.4-127.1h-71.9v426.8
			c0,0,0,4.8-9,4.8s-9-4.8-9-4.8V351.3z"/>
	</g>
	<g>
		<path class="st1" d="M224.4,515.5l0.9-9.1c21.1-3.5,36.4-11.6,46-24.3c7.4-9.4,11.1-28,11.1-55.9v-221c0-16.8-0.9-29.3-2.8-37.6
			c-1.9-8.3-5.5-15.5-11-21.5c-9.8-10.9-24.2-18-43.3-21.1V116c7.4,0.4,11.2,0.6,11.4,0.6l34.2,1.8c11.1,0.6,23,0.9,35.7,0.9
			c22.8,0,47.6-1.2,74.3-3.5c24.8-1.9,43.1-2.9,55-2.9c31.2,0,59.5,4.8,84.9,14.5c25.4,9.7,47.4,23.5,66,41.4
			c18.6,18,33,39.3,43.2,64.1c10.1,24.8,15.2,52,15.2,81.7c0,29.9-5.2,57.4-15.7,82.7c-10.4,25.3-25.4,46.8-44.8,64.7
			c-19.4,17.9-42.5,31.6-69.4,41.1c-26.8,9.6-56.7,14.3-89.7,14.3c-12.1,0-31.4-1.2-58-3.5c-18.7-1.8-37-2.6-54.7-2.6
			c-12.5,0-26.3,0.4-41.6,1.2l-39.8,2.9C229.6,515.2,227.1,515.3,224.4,515.5z M266.3,500.6c17-1.8,32.3-2.6,46-2.6
			c13.7,0,26.8,0.7,39.5,2l-11.4-7.9c-5.9-3.9-9.9-7.6-12.1-11.1c-2.2-3.5-3.4-8.1-3.4-13.8c-0.2-3.3-0.3-6.5-0.3-9.7v-5V178.9v-5
			c0-3.1,0.1-6.3,0.3-9.7c0-5.9,0.9-10.2,2.8-13.2c1.9-2.9,6.1-6.8,12.7-11.7l15.5-11.4c-17.2,1.6-32,2.3-44.5,2.3
			c-11.7,0-26.3-0.7-43.9-2l-5.3-0.3l15.5,11.4c6.2,4.3,10.4,8,12.4,11.3s3.1,7.8,3.1,13.6c0,2,0,3.7,0.1,5.3c0.1,1.6,0.1,3,0.1,4.4
			v5v273.7v5c0,1.2,0,2.5-0.1,4.1c-0.1,1.6-0.1,3.4-0.1,5.6c0,6.1-0.9,10.5-2.6,13.3c-1.8,2.8-6.1,6.7-12.9,11.6L266.3,500.6z
			 M350.9,187.7L350.3,414c0,25.2,2.2,43.4,6.7,54.7c4.3,10.5,11.6,18.7,21.8,24.4c10.2,5.8,22.6,8.6,37,8.6
			c22.4,0,43.1-4.6,62.1-13.9c18.9-9.3,35.5-22.5,49.6-39.8c14.1-17.3,24.9-37.7,32.3-61.3c7.4-23.6,11.1-49,11.1-76.1
			c0-35.7-6.6-67.7-19.8-96c-13.2-28.3-31.5-50.5-55-66.6c-23.5-16.1-49.7-24.1-78.6-24.1c-22.8,0-39.7,5.1-50.5,15.4
			C356.3,149.5,350.9,165.7,350.9,187.7z M463.3,502.1c22.4-5.3,41.8-12.6,58-22c16.2-9.4,31.4-21.9,45.7-37.5
			c32.2-36.3,48.3-79.3,48.3-129.1c0-29.9-5.7-57.6-17-83.1c-11.3-25.6-27.6-47.3-48.7-65.1c-21.2-17.9-45.6-30.6-73.3-38.2
			c10.5,5.1,20.4,10.8,29.7,17.1c9.3,6.3,17.5,13.3,24.6,20.9c7.1,7.6,13.3,15.4,18.6,23.4c22.4,34.2,33.7,74.7,33.7,121.8
			c0,25-3.1,48.9-9.4,71.7c-6.2,22.8-15.2,42.7-26.9,59.7c-10,14.6-21.4,26.6-34.4,35.9C499,486.9,482.8,495,463.3,502.1z"/>
	</g>
</g>
</svg>
